{"title":"Ke$ha - Die Young [Music Video] 720p [Sbyky]","uid":8010172,"size":67081555,"categoryP":"video","categoryS":"music_videos","magnet":"?xt=urn:btih:5d31fdac4b50ea184d95197adf26c6e8aee18bca&amp;dn=Ke%24ha+-+Die+Young+%5BMusic+Video%5D+720p+%5BSbyky%5D&amp;tr=udp%3A%2F%2Ftracker.openbittorrent.com%3A80&amp;tr=udp%3A%2F%2Fopen.demonii.com%3A1337&amp;tr=udp%3A%2F%2Ftracker.coppersurfer.tk%3A6969&amp;tr=udp%3A%2F%2Fexodus.desync.com%3A6969","seeders":1,"leechers":1,"uploader":"Sbyky","files":-1,"time":1357978622,"description":" &lt;a href=&quot;http://www.shotpix.com/images/75534096172033265245.jpg&quot; rel=&quot;nofollow&quot; target=&quot;_NEW&quot;&gt;http://www.shotpix.com/images/75534096172033265245.jpg&lt;/a&gt;\n\nGeneral\nComplete name                            : Ke$ha - Die Young [Music Video] 720p [Sbyky].mp4\nFormat                                   : MPEG-4\nFormat profile                           : Base Media / Version 2\nCodec ID                                 : mp42\nFile size                                : 64.0 MiB\nDuration                                 : 3mn 32s\nOverall bit rate mode                    : Variable\nOverall bit rate                         : 2 529 Kbps\nEncoded date                             : UTC 2012-11-09 02:02:18\nTagged date                              : UTC 2012-11-09 02:02:18\ngsst                                     : 0\ngstd                                     : 212345\ngssd                                     : B4A7D0085HH1357547795767983\ngshh                                     :\n\nVideo\nID                                       : 1\nFormat                                   : AVC\nFormat/Info                              : Advanced Video Codec\nFormat profile                           : &lt;a class=&quot;__cf_email__&quot; href=&quot;/cdn-cgi/l/email-protection&quot; data-cfemail=&quot;2a62434d426a6619041b&quot;&gt;[email&amp;#160;protected]&lt;/a&gt;&lt;script cf-hash='f9e31' type=&quot;text/javascript&quot;&gt;\n/* &lt;![CDATA[ */!function(){try{var t=&quot;currentScript&quot;in document?document.currentScript:function(){for(var t=document.getElementsByTagName(&quot;script&quot;),e=t.length;e--;)if(t[e].getAttribute(&quot;cf-hash&quot;))return t[e]}();if(t&amp;&amp;t.previousSibling){var e,r,n,i,c=t.previousSibling,a=c.getAttribute(&quot;data-cfemail&quot;);if(a){for(e=&quot;&quot;,r=parseInt(a.substr(0,2),16),n=2;a.length-n;n+=2)i=parseInt(a.substr(n,2),16)^r,e+=String.fromCharCode(i);e=document.createTextNode(e),c.parentNode.replaceChild(e,c)}}}catch(u){}}();/* ]]&gt; */&lt;/script&gt;\nFormat settings, CABAC                   : Yes\nFormat settings, ReFrames                : 1 frame\nCodec ID                                 : avc1\nCodec ID/Info                            : Advanced Video Coding\nDuration                                 : 3mn 32s\nBit rate                                 : 2 334 Kbps\nMaximum bit rate                         : 4 614 Kbps\nWidth                                    : 1 280 pixels\nHeight                                   : 720 pixels\nDisplay aspect ratio                     : 16:9\nFrame rate mode                          : Constant\nFrame rate                               : 23.976 fps\nColor space                              : YUV\nChroma subsampling                       : 4:2:0\nBit depth                                : 8 bits\nScan type                                : Progressive\nBits/(Pixel*Frame)                       : 0.106\nStream size                              : 59.1 MiB (92%)\nTagged date                              : UTC 2012-11-09 02:02:19\n\nAudio\nID                                       : 2\nFormat                                   : AAC\nFormat/Info                              : Advanced Audio Codec\nFormat profile                           : LC\nCodec ID                                 : 40\nDuration                                 : 3mn 32s\nBit rate mode                            : Variable\nBit rate                                 : 192 Kbps\nMaximum bit rate                         : 201 Kbps\nChannel(s)                               : 2 channels\nChannel positions                        : Front: L R\nSampling rate                            : 44.1 KHz\nCompression mode                         : Lossy\nStream size                              : 4.86 MiB (8%)\nTitle                                    : IsoMedia File Produced by Google, 5-11-2011\nEncoded date                             : UTC 2012-11-09 02:02:19\nTagged date                              : UTC 2012-11-09 02:02:19\n\nShared By Sbyky &lt;a href=&quot;\nhttp://www.shotpix.com/images/65449402944248708647.gif&quot; rel=&quot;nofollow&quot; target=&quot;_NEW&quot;&gt;\nhttp://www.shotpix.com/images/65449402944248708647.gif&lt;/a&gt;","torrent":{"xt":"urn:btih:5d31fdac4b50ea184d95197adf26c6e8aee18bca","amp;dn":"Ke%24ha+-+Die+Young+%5BMusic+Video%5D+720p+%5BSbyky%5D","amp;tr":["udp%3A%2F%2Ftracker.openbittorrent.com%3A80","udp%3A%2F%2Fopen.demonii.com%3A1337","udp%3A%2F%2Ftracker.coppersurfer.tk%3A6969","udp%3A%2F%2Fexodus.desync.com%3A6969"],"infoHash":"5d31fdac4b50ea184d95197adf26c6e8aee18bca","infoHashBuffer":{"type":"Buffer","data":[93,49,253,172,75,80,234,24,77,149,25,122,223,38,198,232,174,225,139,202]},"announce":[],"urlList":[]}}